<svg width="48" height="48" viewBox="0 0 48 48" fill="none" xmlns="http://www.w3.org/2000/svg">
<path d="M24 44.6069C18.5347 44.6069 13.2933 42.4359 9.42873 38.5713C5.56419 34.7068 3.39312 29.4653 3.39312 24.0001C3.39312 18.5348 5.56419 13.2933 9.42873 9.42879C13.2933 5.56426 18.5347 3.39318 24 3.39318C29.4653 3.39318 34.7067 5.56426 38.5713 9.42879C42.4358 13.2933 44.6069 18.5348 44.6069 24.0001C44.6069 29.4653 42.4358 34.7068 38.5713 38.5713C34.7067 42.4359 29.4653 44.6069 24 44.6069ZM24 47.5508C30.246 47.5508 36.2362 45.0695 40.6529 40.6529C45.0695 36.2363 47.5507 30.2461 47.5507 24.0001C47.5507 17.754 45.0695 11.7638 40.6529 7.34719C36.2362 2.93057 30.246 0.449341 24 0.449341C17.754 0.449341 11.7637 2.93057 7.34712 7.34719C2.93051 11.7638 0.44928 17.754 0.44928 24.0001C0.44928 30.2461 2.93051 36.2363 7.34712 40.6529C11.7637 45.0695 17.754 47.5508 24 47.5508Z" fill="black"/>
<path d="M18.7428 13.9998C19.0205 13.8568 19.3323 13.7932 19.6438 13.8159C19.9554 13.8387 20.2546 13.947 20.5086 14.1288L32.3933 22.6179C32.6134 22.775 32.7928 22.9823 32.9166 23.2227C33.0403 23.4631 33.1049 23.7296 33.1049 23.9999C33.1049 24.2703 33.0403 24.5368 32.9166 24.7772C32.7928 25.0176 32.6134 25.2249 32.3933 25.382L20.5086 33.8711C20.2547 34.0528 19.9556 34.161 19.6442 34.1837C19.3329 34.2065 19.0212 34.143 18.7436 34.0001C18.466 33.8573 18.2332 33.6406 18.0707 33.3741C17.9082 33.1075 17.8223 32.8012 17.8226 32.489V15.5108C17.8223 15.1987 17.908 14.8925 18.0703 14.626C18.2327 14.3594 18.4654 14.1427 18.7428 13.9998Z" fill="black"/>
</svg>
