<svg width="50" height="50" viewBox="0 0 50 50" fill="none" xmlns="http://www.w3.org/2000/svg">
<path d="M25 45.6069C19.5347 45.6069 14.2933 43.4358 10.4287 39.5713C6.5642 35.7067 4.39313 30.4653 4.39313 25C4.39313 19.5347 6.5642 14.2933 10.4287 10.4287C14.2933 6.5642 19.5347 4.39313 25 4.39313C30.4653 4.39313 35.7067 6.5642 39.5713 10.4287C43.4358 14.2933 45.6069 19.5347 45.6069 25C45.6069 30.4653 43.4358 35.7067 39.5713 39.5713C35.7067 43.4358 30.4653 45.6069 25 45.6069ZM25 48.5507C31.246 48.5507 37.2363 46.0695 41.6529 41.6529C46.0695 37.2363 48.5507 31.246 48.5507 25C48.5507 18.754 46.0695 12.7637 41.6529 8.34713C37.2363 3.93052 31.246 1.44929 25 1.44929C18.754 1.44929 12.7637 3.93052 8.34713 8.34713C3.93052 12.7637 1.44929 18.754 1.44929 25C1.44929 31.246 3.93052 37.2363 8.34713 41.6529C12.7637 46.0695 18.754 48.5507 25 48.5507Z" fill="black"/>
<path d="M19.7428 14.9997C20.0205 14.8567 20.3323 14.7931 20.6438 14.8159C20.9554 14.8386 21.2546 14.9469 21.5086 15.1288L33.3933 23.6179C33.6134 23.7749 33.7928 23.9823 33.9166 24.2226C34.0403 24.463 34.1049 24.7295 34.1049 24.9999C34.1049 25.2703 34.0403 25.5367 33.9166 25.7771C33.7928 26.0175 33.6134 26.2249 33.3933 26.3819L21.5086 34.871C21.2547 35.0527 20.9556 35.1609 20.6442 35.1837C20.3329 35.2064 20.0212 35.1429 19.7436 35.0001C19.466 34.8572 19.2332 34.6406 19.0707 34.374C18.9082 34.1074 18.8224 33.8012 18.8226 33.489V16.5108C18.8223 16.1987 18.908 15.8925 19.0703 15.6259C19.2327 15.3593 19.4654 15.1427 19.7428 14.9997Z" fill="black"/>
</svg>
